<svg width="1240" height="560" viewBox="0 0 1240 560" fill="none" xmlns="http://www.w3.org/2000/svg">
<path d="M480.967 357.6C467.901 357.6 457.301 355.867 449.167 352.4C441.034 348.8 434.901 343.867 430.767 337.6C426.767 331.333 424.434 324.267 423.767 316.4H439.367C439.767 322.8 441.901 328 445.767 332C449.634 335.867 454.701 338.733 460.967 340.6C467.367 342.467 474.367 343.4 481.967 343.4C493.167 343.4 502.034 341.467 508.567 337.6C515.101 333.6 518.367 327.733 518.367 320C518.367 315.333 516.701 311.6 513.367 308.8C510.167 305.867 505.834 303.467 500.367 301.6C495.034 299.733 489.167 298.067 482.767 296.6C476.367 295 469.901 293.333 463.367 291.6C456.967 289.867 451.034 287.667 445.567 285C440.234 282.333 435.901 278.933 432.567 274.8C429.367 270.533 427.767 265.133 427.767 258.6C427.767 247.8 431.901 239 440.167 232.2C448.567 225.4 461.034 222 477.567 222C489.301 222 498.967 223.8 506.567 227.4C514.167 230.867 519.834 235.467 523.567 241.2C527.434 246.933 529.567 253.133 529.967 259.8H514.567C513.767 253.133 510.434 247.533 504.567 243C498.701 238.333 489.701 236 477.567 236C470.101 236 464.034 236.733 459.367 238.2C454.701 239.667 451.101 241.6 448.567 244C446.167 246.267 444.501 248.667 443.567 251.2C442.767 253.733 442.367 256.133 442.367 258.4C442.367 262.8 443.967 266.4 447.167 269.2C450.501 271.867 454.834 274.133 460.167 276C465.634 277.733 471.634 279.333 478.167 280.8C484.701 282.267 491.167 283.933 497.567 285.8C504.101 287.533 510.034 289.8 515.367 292.6C520.834 295.267 525.167 298.733 528.367 303C531.701 307.267 533.367 312.733 533.367 319.4C533.367 331.667 528.701 341.133 519.367 347.8C510.034 354.333 497.234 357.6 480.967 357.6ZM556.614 356V223.6H616.214C630.347 223.6 641.481 227.467 649.614 235.2C657.747 242.8 661.814 253.133 661.814 266.2C661.814 279.267 657.747 289.667 649.614 297.4C641.481 305 630.347 308.8 616.214 308.8H571.614V356H556.614ZM571.614 294.8H615.214C625.614 294.8 633.481 292.267 638.814 287.2C644.147 282.133 646.814 275.133 646.814 266.2C646.814 257.4 644.147 250.467 638.814 245.4C633.481 240.333 625.614 237.8 615.214 237.8H571.614V294.8ZM741 357.6C731 357.6 721.867 355.867 713.6 352.4C705.333 348.933 698.2 344.067 692.2 337.8C686.333 331.533 681.8 324.333 678.6 316.2C675.4 307.933 673.8 299.133 673.8 289.8C673.8 280.333 675.4 271.533 678.6 263.4C681.8 255.267 686.333 248.067 692.2 241.8C698.2 235.533 705.333 230.667 713.6 227.2C721.867 223.733 731 222 741 222C751 222 760.133 223.733 768.4 227.2C776.667 230.667 783.733 235.533 789.6 241.8C795.6 248.067 800.2 255.267 803.4 263.4C806.6 271.533 808.2 280.333 808.2 289.8C808.2 299.133 806.6 307.933 803.4 316.2C800.2 324.333 795.6 331.533 789.6 337.8C783.733 344.067 776.667 348.933 768.4 352.4C760.133 355.867 751 357.6 741 357.6ZM741 343C751.8 343 761.067 340.667 768.8 336C776.667 331.2 782.667 324.8 786.8 316.8C791.067 308.667 793.2 299.667 793.2 289.8C793.2 279.8 791.067 270.8 786.8 262.8C782.667 254.8 776.667 248.467 768.8 243.8C761.067 239 751.8 236.6 741 236.6C730.333 236.6 721.067 239 713.2 243.8C705.333 248.467 699.267 254.8 695 262.8C690.867 270.8 688.8 279.8 688.8 289.8C688.8 299.667 690.867 308.667 695 316.8C699.267 324.8 705.333 331.2 713.2 336C721.067 340.667 730.333 343 741 343ZM859.336 356V237.8H813.136V223.6H920.536V237.8H874.336V356H859.336ZM939.622 356V223.6H954.622V356H939.622ZM987.083 356V223.6H1082.68V238H1002.08V284H1073.88V298.6H1002.08V356H987.083ZM1143.68 356V303.6L1088.08 223.6H1106.28L1151.08 288L1195.88 223.6H1214.08L1158.68 303.6V356H1143.68Z" fill="#62D089"/>
<path d="M92.3445 560V427.6H148.145C156.011 427.6 163.545 429.133 170.745 432.2C178.078 435.133 184.611 439.467 190.345 445.2C196.078 450.933 200.611 457.867 203.945 466C207.278 474.133 208.945 483.4 208.945 493.8C208.945 504.2 207.278 513.467 203.945 521.6C200.611 529.733 196.078 536.667 190.345 542.4C184.611 548.133 178.078 552.533 170.745 555.6C163.545 558.533 156.011 560 148.145 560H92.3445ZM107.345 545.8H147.545C157.011 545.8 165.211 543.4 172.145 538.6C179.078 533.8 184.411 527.467 188.145 519.6C192.011 511.733 193.945 503.133 193.945 493.8C193.945 484.333 192.011 475.667 188.145 467.8C184.411 459.933 179.078 453.667 172.145 449C165.211 444.2 157.011 441.8 147.545 441.8H107.345V545.8ZM232.97 560V427.6H247.97V560H232.97ZM264.83 560L321.03 427.6H339.83L396.03 560H379.43L363.23 521.6H297.63L281.43 560H264.83ZM303.43 507.8H357.43L330.43 443.2L303.43 507.8ZM412.852 560V427.6H476.252C489.852 427.6 500.652 431.333 508.652 438.8C516.786 446.267 520.852 456.333 520.852 469C520.852 477.533 519.186 484.333 515.852 489.4C512.652 494.467 508.586 498.333 503.652 501C498.719 503.533 493.786 505.4 488.852 506.6L523.652 560H505.852L473.852 509.2H427.852V560H412.852ZM427.852 495H473.652C478.452 495 483.319 494.267 488.252 492.8C493.186 491.333 497.319 488.733 500.652 485C504.119 481.133 505.852 475.8 505.852 469C505.852 460.6 502.986 454 497.252 449.2C491.519 444.267 483.919 441.8 474.452 441.8H427.852V495ZM583.907 560V507.6L528.307 427.6H546.507L591.307 492L636.107 427.6H654.307L598.907 507.6V560H583.907Z" fill="#62D089"/>
<path d="M110.946 164V111.6L55.3461 31.6H73.5461L118.346 96L163.146 31.6H181.346L125.946 111.6V164H110.946ZM249.668 165.6C239.668 165.6 230.535 163.867 222.268 160.4C214.001 156.933 206.868 152.067 200.868 145.8C195.001 139.533 190.468 132.333 187.268 124.2C184.068 115.933 182.468 107.133 182.468 97.8C182.468 88.3333 184.068 79.5333 187.268 71.4C190.468 63.2667 195.001 56.0667 200.868 49.8C206.868 43.5333 214.001 38.6667 222.268 35.2C230.535 31.7333 239.668 30 249.668 30C259.668 30 268.801 31.7333 277.068 35.2C285.335 38.6667 292.401 43.5333 298.268 49.8C304.268 56.0667 308.868 63.2667 312.068 71.4C315.268 79.5333 316.868 88.3333 316.868 97.8C316.868 107.133 315.268 115.933 312.068 124.2C308.868 132.333 304.268 139.533 298.268 145.8C292.401 152.067 285.335 156.933 277.068 160.4C268.801 163.867 259.668 165.6 249.668 165.6ZM249.668 151C260.468 151 269.735 148.667 277.468 144C285.335 139.2 291.335 132.8 295.468 124.8C299.735 116.667 301.868 107.667 301.868 97.8C301.868 87.8 299.735 78.8 295.468 70.8C291.335 62.8 285.335 56.4667 277.468 51.8C269.735 47 260.468 44.6 249.668 44.6C239.001 44.6 229.735 47 221.868 51.8C214.001 56.4667 207.935 62.8 203.668 70.8C199.535 78.8 197.468 87.8 197.468 97.8C197.468 107.667 199.535 116.667 203.668 124.8C207.935 132.8 214.001 139.2 221.868 144C229.735 148.667 239.001 151 249.668 151ZM395.468 165.6C384.535 165.6 374.801 163.2 366.268 158.4C357.868 153.467 351.268 146.6 346.468 137.8C341.668 129 339.268 118.733 339.268 107V31.6H354.268V107.4C354.268 117.667 356.201 126 360.068 132.4C364.068 138.8 369.201 143.533 375.468 146.6C381.868 149.533 388.535 151 395.468 151C402.535 151 409.201 149.533 415.468 146.6C421.735 143.533 426.868 138.8 430.868 132.4C434.868 126 436.868 117.667 436.868 107.4V31.6H451.868V107C451.868 118.6 449.468 128.8 444.668 137.6C439.868 146.4 433.201 153.267 424.668 158.2C416.268 163.133 406.535 165.6 395.468 165.6ZM482.665 164V31.6H546.065C559.665 31.6 570.465 35.3333 578.465 42.8C586.598 50.2667 590.665 60.3333 590.665 73C590.665 81.5333 588.998 88.3333 585.665 93.4C582.465 98.4667 578.398 102.333 573.465 105C568.532 107.533 563.598 109.4 558.665 110.6L593.465 164H575.665L543.665 113.2H497.665V164H482.665ZM497.665 99H543.465C548.265 99 553.132 98.2667 558.065 96.8C562.998 95.3333 567.132 92.7333 570.465 89C573.932 85.1333 575.665 79.8 575.665 73C575.665 64.6 572.798 58 567.065 53.2C561.332 48.2667 553.732 45.8 544.265 45.8H497.665V99Z" fill="#62D089"/>
</svg>
